<svg id="layer_1" data-name="layer 1" xmlns="http://www.w3.org/2000/svg" viewBox="0 0 76.57 74.32"><defs><style>.cls-1{fill:#4a95cb;stroke:#fff;stroke-miterlimit:10;}</style></defs><path class="cls-1" d="M64.37,8.72a23.79,23.79,0,0,0-31.54,24.8A23.78,23.78,0,1,0,51,64.77c1.19-3.39-7.23-8.12-9-3.14a14.27,14.27,0,1,1-3.35-14.79c.23.26.47.53.72.79a23.75,23.75,0,0,0,9.29,6,24.1,24.1,0,0,0,3.54.95A23.78,23.78,0,0,0,64.37,8.72Zm-3.15,9A14.27,14.27,0,1,1,46.39,41.23c-.24-.27-.48-.53-.73-.79A14.26,14.26,0,0,1,61.22,17.7Z" transform="translate(-4.22 -6.87)"/></svg>